<svg width="12" height="12" viewBox="0 0 12 12" fill="none" xmlns="http://www.w3.org/2000/svg">
<path d="M0 6.375C-2.26374e-09 6.22726 0.0299223 6.08097 0.0880584 5.94448C0.146194 5.80799 0.231406 5.68397 0.338827 5.5795C0.446248 5.47504 0.573776 5.39217 0.714129 5.33564C0.854482 5.2791 1.00491 5.25 1.15683 5.25C1.30874 5.25 1.45917 5.2791 1.59953 5.33564C1.73988 5.39217 1.86741 5.47504 1.97483 5.5795C2.08225 5.68397 2.16746 5.80799 2.2256 5.94448C2.28373 6.08097 2.31366 6.22726 2.31366 6.375V10.875C2.31366 11.1734 2.19178 11.4595 1.97483 11.6705C1.75788 11.8815 1.46364 12 1.15683 12C0.850018 12 0.555774 11.8815 0.338827 11.6705C0.12188 11.4595 4.57182e-09 11.1734 0 10.875V6.375ZM3.08487 6.24975V10.3222C3.08474 10.601 3.16448 10.8743 3.31514 11.1114C3.46581 11.3485 3.68144 11.5401 3.93784 11.6647L3.9764 11.6835C4.40434 11.8915 4.87616 11.9999 5.35457 12H9.53149C9.8882 12.0001 10.2339 11.88 10.5098 11.6601C10.7857 11.4403 10.9747 11.1342 11.0446 10.794L11.9701 6.294C12.0148 6.0764 12.0093 5.85187 11.954 5.63658C11.8988 5.42129 11.7951 5.22061 11.6504 5.04901C11.5057 4.8774 11.3237 4.73915 11.1175 4.64421C10.9112 4.54928 10.6859 4.50002 10.4577 4.5H7.71219V1.5C7.71219 1.10218 7.54968 0.720644 7.26042 0.43934C6.97115 0.158035 6.57883 0 6.16975 0C5.96521 0 5.76905 0.0790176 5.62441 0.21967C5.47978 0.360322 5.39853 0.551088 5.39853 0.75V1.25025C5.39853 1.89936 5.18204 2.53096 4.78155 3.05025L3.70185 4.44975C3.30136 4.96904 3.08487 5.60064 3.08487 6.24975V6.24975Z" fill="white"/>
</svg>
